<?xml version="1.0"?><svg width="1280" height="960" xmlns="http://www.w3.org/2000/svg" xmlns:xlink="http://www.w3.org/1999/xlink">
 <title>red suitcase</title>
 <defs>
  <linearGradient id="linearGradient9686">
   <stop stop-color="#56b8ff" id="stop9688" offset="0"/>
   <stop stop-color="#4e6f86" stop-opacity="0.955357" id="stop9690" offset="1"/>
  </linearGradient>
  <linearGradient id="linearGradient9674">
   <stop stop-color="#0088aa" id="stop9676" offset="0"/>
   <stop stop-color="#19c5f0" id="stop9678" offset="1"/>
  </linearGradient>
  <filter color-interpolation-filters="sRGB" height="2.843698" y="-0.921849" width="1.024317" x="-0.012158" id="filter9479">
   <feGaussianBlur id="feGaussianBlur9481" stdDeviation="2.261944"/>
  </filter>
  <filter color-interpolation-filters="sRGB" height="1.779911" y="-0.389955" width="1.554256" x="-0.277128" id="filter9563">
   <feGaussianBlur id="feGaussianBlur9565" stdDeviation="4.840837"/>
  </filter>
  <filter color-interpolation-filters="sRGB" height="1.808102" y="-0.404051" width="1.090666" x="-0.045333" id="filter9651">
   <feGaussianBlur id="feGaussianBlur9653" stdDeviation="8.353664"/>
  </filter>
  <linearGradient gradientUnits="userSpaceOnUse" y2="506.9838" x2="377.59503" y1="309.90005" x1="377.59503" id="linearGradient9680" xlink:href="#linearGradient9674"/>
  <linearGradient gradientUnits="userSpaceOnUse" y2="190.39902" x2="381.13055" y1="105.5462" x1="381.13055" id="linearGradient9692" xlink:href="#linearGradient9686"/>
 </defs>
 <metadata id="metadata8811">image/svg+xml</metadata>
 <g>
  <title>Layer 1</title>
  <g id="svg_4">
   <g id="svg_2">
    <path stroke-width="12" fill="#ff0000" stroke="#bf0000" id="path8837" d="m205.18338,861.478149l-83.390778,-1.086121l-9.696579,-6.043396c-22.497108,-14.021484 -41.622139,-41.642456 -45.523865,-65.746826c-1.995987,-12.331604 -5.995251,-171.736877 -5.867634,-233.882568c0.169842,-82.731781 7.042866,-243.649384 11.763729,-275.423187c4.524361,-30.450989 22.151451,-50.774292 53.924904,-62.173676c15.916901,-5.710495 67.29985,-11.025818 171.877594,-17.77977c69.696991,-4.501282 265.437988,-6.264114 349.391235,-3.146561c75.000977,2.785034 143.907898,7.05986 191.678955,11.891251c18.132568,1.833862 35.285156,3.435211 38.116455,3.558533c2.83136,0.123291 4.800964,0.822174 4.376648,1.552994c-1.138245,1.96199 8.71814,4.197327 11.227051,2.546082c1.398621,-0.920547 1.595215,-0.459122 0.5625,1.320465c-1.162537,2.002762 -0.696472,2.371185 1.740356,1.375443c2.242676,-0.91655 2.874756,-0.579758 1.939209,1.0327c-0.935547,1.612411 -0.303406,1.949158 1.939453,1.032639c2.242676,-0.916519 2.875,-0.579727 1.939392,1.0327c-0.935913,1.612442 -0.303589,1.949203 1.93927,1.032669c1.830139,-0.748001 2.88031,-0.58905 2.333374,0.353256c-1.460999,2.517471 10.191528,11.071457 12.769897,9.374329c1.284546,-0.845505 1.665039,-0.528442 0.914856,0.763275c-1.573181,2.711472 8.110107,15.412674 10.534424,13.817047c0.957397,-0.630005 1.165955,0.449387 0.463013,2.398636c-0.859985,2.388397 -0.54425,3.061859 0.970093,2.065338c1.51416,-0.996552 1.830322,-0.323044 0.96936,2.065369c-0.860229,2.388382 -0.54425,3.061905 0.96991,2.065353c1.51416,-0.996536 1.830505,-0.323059 0.969543,2.065338c-0.934998,2.594879 -0.588867,3.091339 1.291748,1.853546c1.619263,-1.065948 2.102783,-0.88797 1.307678,0.48175c-1.661804,2.863892 0.694153,15.21106 2.656006,13.919678c0.837219,-0.551117 1.085815,0.775879 0.552429,2.948853c-0.533875,2.173004 0.415771,32.612457 2.109619,67.64328c8.092468,167.353516 11.934143,317.592133 9.9729,390.018707c1.60791,78.063721 -12.786194,86.026917 -59.602234,124.901245c-6.373352,4.138245 -8.558899,4.164856 -305.074524,3.71283c-164.260468,-0.250244 -336.181213,-0.943848 -382.04599,-1.541199l0,0z"/>
    <path stroke-width="12" fill="#000000" id="path9665" d="m828.372742,907.836975c-14.990906,-2.773499 -27.43158,-14.649536 -32.919495,-36.441772c5.686218,-0.177917 9.009644,1.552795 13.286072,0.691772c19.609131,0.745728 38.304504,-0.684326 57.911743,-0.142029c-7.282166,30.050598 -22.365295,39.075684 -38.27832,35.892029z"/>
    <path stroke-width="12" fill="#000000" id="path9682" d="m413.821625,178.578796c-3.671631,-4.334686 -4.24408,-10.706284 -1.480865,-16.483505c2.732086,-5.71228 7.854889,-8.781876 14.72287,-8.822006c4.723633,-0.02774 6.860321,0.688736 14.572021,4.88559c24.07132,13.099899 69.621094,18.003174 97.275848,10.471466c3.199951,-0.87149 11.369385,-4.381088 18.154175,-7.799103c15.32605,-7.72084 22.600159,-9.364395 29.323425,-6.62558c5.616577,2.287903 8.269836,6.45665 8.272766,12.997986c0.000916,2.559845 -0.760803,6.244324 -1.693237,8.187744l-1.695435,3.533508l-61.088501,-0.114777c-33.598724,-0.063095 -73.229248,0.208466 -88.067993,0.603577c-23.349335,0.621735 -27.156281,0.509415 -28.295074,-0.8349z"/>
    <path stroke-width="12" fill="#7f0000" stroke="#ff0000" id="path9684" d="m400.734924,179.772049c0,-0.482452 -1.760498,-1.724091 -3.912537,-2.759171c-4.428833,-2.130188 -10.627777,-8.90062 -10.641174,-11.622177c-0.009583,-1.806107 18.491028,-95.615646 18.986023,-96.274849c0.837463,-1.115089 45.878082,-4.36348 75.318329,-5.432064c26.805023,-0.972935 41.498077,-0.97596 66.308685,-0.014473c30.01355,1.164097 48.540527,2.416752 49.182495,3.325367c0.474609,0.67173 18.100586,94.400002 18.091858,96.204903c-0.017578,3.668121 -14.368774,16.414551 -18.480469,16.414551c-2.278748,0 -2.305542,-0.281616 -0.400513,-4.210968c1.991882,-4.108398 2.030396,-11.568909 0.084229,-16.270966c-0.870544,-2.102951 -4.404602,-16.337982 -7.853821,-31.63343c-3.449036,-15.295403 -6.404114,-27.951691 -6.566467,-28.125038c-0.613403,-0.654243 -154.87738,1.260818 -155.505035,1.930466c-1.327423,1.415787 -15.890442,58.3396 -16.477478,64.406952c-0.503082,5.199509 -0.253448,7.003052 1.46756,10.601318l2.073792,4.335953l-5.837646,0c-3.210693,0 -5.837646,-0.39476 -5.837646,-0.877197l-0.000183,0.000824z"/>
    <path stroke-width="12" id="svg_1" fill="#000000" d="m174.822083,903.69989c-14.991104,-2.773438 -27.431549,-14.649475 -32.919647,-36.441833c5.686218,-0.177856 9.00972,1.552795 13.286148,0.691833c19.609024,0.745728 38.304413,-0.684326 57.911636,-0.14209c-7.282059,30.050659 -22.365402,39.075684 -38.278137,35.89209z"/>
   </g>
   <path stroke-width="12" fill="#ff5656" filter="url(#filter9479)" id="path9423" d="m65.592819,280.863861c463.497513,-26.99057 865.906265,0 865.906265,0"/>
   <path fill="none" stroke="#bf0000" stroke-width="12" id="path8825" d="m857.214661,197.163269c0,0 -344.785706,-39.09642 -715.038345,6.173111c-74.442352,12.346237 -80.319374,86.423691 -80.319374,86.423691c-15.67205,255.155762 -1.958977,487.676636 -1.958977,487.676636c8.157661,49.047058 55.213509,82.142212 66.6063,82.308228c304.041298,4.430847 760.095406,2.057739 760.095406,2.057739c64.647278,-12.346252 70.524292,-74.077454 70.524292,-74.077454c5.877136,-287.050171 -10.55481,-504.152985 -11.75415,-514.426819c-6.646057,-56.939117 -88.155151,-76.135132 -88.155151,-76.135132z"/>
   <path fill="#ff0000" stroke="#bf0000" stroke-width="12" id="path8827" d="m107.396416,218.096939c369.942451,-40.12532 722.127571,-13.271683 722.127571,-13.271683c81.880493,9.259674 82.867188,72.019745 82.867188,72.019745c18.743652,350.839081 13.822876,480.172821 11.838135,494.87851c-6.459229,47.855164 -65.780029,80.375427 -65.780029,80.375427"/>
   <path fill="none" stroke="#bf0000" stroke-width="12" id="path8829" d="m125.097641,851.801575c-58.742508,-26.191528 -56.635925,-85.222229 -56.635925,-73.506775c-36.110985,-256.308411 1.956284,-558.665192 15.94751,-540.334671c68.375565,-70.236298 262.102615,-44.522934 262.102615,-44.522934"/>
   <path fill="none" stroke="#000000" stroke-width="12" id="path8831" d="m591.702515,182.585449c13.347961,-19.23793 -2.24231,-40.907257 -35.527161,-20.132935c-33.284729,20.774277 -100.659393,6.885925 -113.904266,-3.147339c-20.11911,-15.240631 -42.266602,5.942245 -27.877686,23.280273"/>
   <path fill="none" stroke="#000000" stroke-width="12" id="path8833" d="m410.237762,164.397751l15.929993,-59.655785l154.453033,-1.455009l12.467102,54.563171"/>
   <path fill="none" stroke="#ff0000" stroke-width="12" id="path8835" d="m401.233704,181.857971c-15.237549,-5.092575 -15.930145,-15.27771 -15.930145,-15.27771l19.393188,-95.303726c103.892242,-11.640137 192.546783,-2.182541 192.546783,-2.182541l18.700562,96.758759c-6.926208,11.640137 -16.622742,15.27771 -16.622742,15.27771"/>
   <path stroke-width="12" fill="#ff5656" filter="url(#filter9563)" d="m149.934418,237.434647c-0.439438,0.166641 -0.943787,0.159485 -1.422775,0.189056c-0.629593,0.040314 -1.258774,0.084503 -1.888062,0.12709c-0.807083,0.054794 -1.614761,0.10347 -2.422668,0.15036c-0.974686,0.056198 -1.950089,0.104675 -2.925674,0.151337c-1.070923,0.128922 -2.145447,0.174759 -3.200089,0.37439c-1.179596,0.158264 -2.320587,0.441391 -3.451584,0.737091c-1.407196,0.392654 -2.821564,0.76799 -4.236038,1.144485c-1.500183,0.37442 -2.955688,0.842667 -4.441658,1.248215c-17.399132,4.999222 43.029121,-12.582993 29.675179,-8.768539c-1.558182,0.437714 -3.078415,0.949341 -4.607056,1.44371c-1.528656,0.524612 -3.03801,1.08493 -4.542221,1.650391c-1.493378,0.592041 -2.948563,1.237289 -4.413895,1.868561c-1.46196,0.639694 -2.898026,1.31134 -4.329269,1.990433c-1.406296,0.698669 -2.79834,1.417877 -4.132034,2.196701c-1.350876,0.754059 -2.650787,1.557983 -3.911316,2.398666c-1.26416,0.852905 -2.452034,1.769135 -3.575508,2.730515c-1.164017,0.958084 -2.277206,1.950485 -3.350899,2.968643c-1.090515,1.039383 -2.092308,2.130417 -3.062622,3.237122c-0.992859,1.138748 -1.901619,2.318405 -2.781433,3.510147c-0.902206,1.228149 -1.726692,2.488251 -2.525009,3.757721c-0.81572,1.324554 -1.589188,2.664459 -2.351242,4.007721c-0.781143,1.378601 -1.499222,2.777374 -2.194618,4.182587c-0.710625,1.441864 -1.361755,2.900208 -1.992889,4.363525c-0.320595,0.745361 -0.62355,1.494965 -0.92598,2.24472c0,0 -35.085136,8.357758 -35.085136,8.357758l0,0c0.289886,-0.764923 0.580299,-1.529724 0.887283,-2.290771c0.605499,-1.496765 1.229836,-2.989197 1.910255,-4.467041c0.667236,-1.443298 1.355476,-2.880981 2.10569,-4.300262c0.728371,-1.372284 1.493668,-2.732361 2.261505,-4.091797c0.765953,-1.320953 1.556587,-2.633789 2.420311,-3.919128c0.84549,-1.252289 1.718262,-2.49408 2.670761,-3.700684c0.934158,-1.177368 1.898247,-2.341309 2.94828,-3.460297c1.03038,-1.091797 2.09124,-2.167862 3.253838,-3.179565c1.159225,-0.989944 2.244766,-2.031815 3.480103,-2.968781c1.216629,-0.935959 2.467171,-1.848022 3.820343,-2.668167c1.351692,-0.800537 2.663605,-1.639771 4.072998,-2.381943c1.386963,-0.758377 2.818024,-1.471771 4.282745,-2.138046c1.437683,-0.684036 2.907204,-1.328522 4.376434,-1.971375c1.460701,-0.664825 2.980003,-1.233231 4.489532,-1.827942c1.486435,-0.571838 3.015327,-1.072144 4.531487,-1.594864c12.773712,-4.090775 25.75914,-7.785522 38.772064,-11.399231c1.489532,-0.430328 2.996933,-0.819351 4.504166,-1.211121c1.467789,-0.384109 2.941528,-0.764435 4.447327,-1.051712c1.282669,-0.226913 2.574936,-0.407822 3.884079,-0.518829c1.127167,-0.058472 2.246246,-0.172302 3.374283,-0.216721c1.001328,-0.07782 2.002182,-0.160126 2.999649,-0.263687c0.829269,-0.087784 1.658081,-0.180878 2.479187,-0.307297c0.637054,-0.101242 1.274582,-0.209137 1.888412,-0.377701c0.43454,-0.126312 0.845154,-0.312912 1.301331,-0.382523c0,0 -33.067566,14.426987 -33.067566,14.426987l0,0.000092z" id="path8839"/>
   <path stroke-width="12" opacity="0.561947" fill="#bf0000" stroke="#bf0000" filter="url(#filter9651)" id="path9425" d="m363.415527,278.090759c-120.22998,-1.157318 -278.828156,15.21875 -288.618103,-3.768463l-7.669624,-14.874969l4.102409,-8.347305c9.38726,-19.100372 28.655037,-33.589127 53.894012,-40.526413c20.430923,-5.615768 139.268814,-14.606003 248.587814,-18.805847c44.512482,-1.710114 222.902832,-1.727524 266.72937,-0.026031c85.801147,3.331131 187.589844,9.536392 218.188416,13.301346c34.300232,4.220413 57.726624,16.479294 71.444153,37.386673c4.703308,7.16864 5.01355,41.88913 3.855713,44.093994c-4.67865,8.909729 -51.536133,-4.024109 -122.859985,-2.642517c-122.772644,2.378326 -329.885986,-4.656738 -447.654175,-5.790466z"/>
   <path fill="none" stroke="#000000" stroke-width="12" id="path9655" d="m144.468597,860.876709c7.093765,23.499634 54.512192,36.429749 69.391129,-0.230957"/>
   <path stroke="#000000" stroke-width="12" fill="#000000" id="path9657" d="m171.264877,896.53009c-11.501709,-4.750305 -20.443832,-15.924927 -24.407288,-30.500366l-1.44632,-5.318848l15.608841,0.852356c8.584778,0.46875 23.600784,0.852356 33.368744,0.852356l17.760101,0l-1.549789,5.173279c-2.345673,7.829895 -8.510788,18.587402 -13.202957,23.037781c-7.621399,7.228516 -17.512833,9.462891 -26.131332,5.903442z"/>
   <path fill="#000000" stroke="#000000" stroke-width="12" d="m793.740417,864.542786c13.312073,44.090942 60.42749,45.977844 75.306396,0.424927" id="path9661"/>
   <path stroke-width="12" fill="#ff0000" stroke="#bf0000" id="path9668" d="m60.716221,748.393921c-0.536873,-1.734314 -2.186954,-51.829834 -3.525555,-107.029785c-1.239769,-51.128418 -0.621597,-196.986755 1.026413,-242.158142c2.537724,-69.558655 5.227871,-119.343903 6.846046,-126.698853c3.036545,-13.801422 8.836906,-27.741196 15.945213,-38.320572c5.90535,-8.788956 17.552704,-20.068665 26.328156,-25.49704c16.052811,-9.93013 24.463631,-11.987503 69.026466,-16.884644c201.542709,-22.148315 431.58046,-24.111618 648.551834,-5.535141l31.459778,2.693481l12.882568,4.493652c42.244934,14.735764 69.027771,39.407547 73.612671,67.810883c4.099792,25.396851 10.438232,168.789734 12.736511,288.137512c1.338684,69.515442 1.271423,94.283813 -0.255066,93.747803c-0.895142,-0.314087 -3.201843,-150.147614 -3.360413,-163.311859c-0.687439,-57.053528 -3.954651,-55.143829 -8.90332,-153.180511c-2.62738,-52.051025 -2.968262,-56.205017 -5.222351,-63.633514c-4.096069,-13.499664 -16.100098,-32.131531 -19.749146,-30.653458c-1.177795,0.477127 -1.422729,0.211029 -0.965027,-1.04808c0.453552,-1.247452 -0.954041,-2.857346 -5.397766,-6.174377c-8.166077,-6.095108 -17.046204,-10.859879 -18.865967,-10.122818c-0.869873,0.352402 -1.247253,0.177368 -0.899292,-0.416824c1.127014,-1.924759 -17.945435,-7.4384 -32.709717,-9.456039c-18.48938,-2.526688 -105.711975,-8.769333 -157.297974,-11.258072c-126.53186,-6.104294 -268.831116,-5.93457 -390.09903,0.465317c-48.850769,2.578079 -126.661423,8.760162 -166.01004,13.189545c-8.748581,0.984802 -24.289207,5.941879 -32.705864,10.432327c-23.052231,12.298935 -36.805939,30.285553 -41.300491,54.011566c-2.562302,13.526001 -7.01815,84.29364 -9.8111,155.819122c-2.683765,68.729675 -2.102642,216.018585 1.150787,291.678131c0.555008,12.905701 0.740578,24.975281 0.412563,26.821289c-0.597313,3.360596 -2.158009,4.479248 -2.90089,2.079102z"/>
   <path stroke-width="12" fill="#7f0000" stroke="#bf0000" id="path9670" d="m897.710693,856.090332c0,-0.754089 4.722778,-5.412048 10.495117,-10.351074c11.019958,-9.428894 24.869873,-25.259766 30.694275,-35.084229c1.894714,-3.195801 4.843445,-9.83783 6.55304,-14.759766c5.249207,-15.112854 8.50238,-12.189087 4.041809,3.632629c-3.623169,12.851624 -11.716797,27.483337 -20.333984,36.760315c-9.954346,10.716614 -31.450256,24.251099 -31.450256,19.802124z"/>
  </g>
 </g>
</svg>